<svg xmlns="http://www.w3.org/2000/svg" xmlns:xlink="http://www.w3.org/1999/xlink" viewBox="0 0 158.13 49.71">
<defs>
<style>
.cls-1,.cls-10,.cls-13,.cls-14,.cls-16,.cls-18,.cls-9{fill:none;}
.cls-1{clip-rule:evenodd;}
.cls-2{fill:#fff;}
.cls-11,.cls-12,.cls-15,.cls-17,.cls-2,.cls-3,.cls-4,.cls-5,.cls-6{fill-rule:evenodd;}
.cls-3{fill:#fff;}
.cls-19,.cls-4{fill:#231f20;}
.cls-5{fill:#caa367;}
.cls-6{fill:#80070c;}
.cls-7{clip-path:url(#clip-path);}
.cls-8{clip-path:url(#clip-path-2);}
.cls-16,.cls-9{stroke:#946d10;}
.cls-9{stroke-miterlimit:22.93;stroke-width:0.57px;}
.cls-10{stroke:#404041;stroke-width:0.61px;}
.cls-10,.cls-13,.cls-14,.cls-16,.cls-18{stroke-linecap:round;stroke-linejoin:round;}
.cls-11{fill:#007dbd;}.cls-12{fill:#fff1a6;}
.cls-13{stroke:#fff;stroke-width:0.28px;}
.cls-14,.cls-18{stroke:#b08436;}
.cls-14{stroke-width:0.58px;}
.cls-15{fill:#960917;}
.cls-16,.cls-18{stroke-width:0.39px;}
.cls-17{fill:#ffee80;}
</style>
<clipPath id="clip-path">
<path class="cls-1" d="M25.85,7.09c7.34,0,13.29,8,13.29,17.77S33.19,42.62,25.85,42.62s-13.29-8-13.29-17.77S18.52,7.09,25.85,7.09"/>
</clipPath>

<clipPath id="clip-path-2">
<path class="cls-1" d="M39.11,23.7c.94,7.83-4,18.92-13.26,18.92S11.38,32.06,12.6,23.7Z"/>
</clipPath>
</defs>
<title>Recurso 1</title>
<g id="Capa_2" data-name="Capa 2">
<g id="Capa_2-2" data-name="Capa 2">
<path class="cls-2" d="M74.54,11h-.36a1.35,1.35,0,0,0-1.5,1.5v16.9c0,4.88-2.9,7.79-7.75,7.79s-7.83-2.91-7.83-7.79V12.51a1.35,1.35,0,0,0-1.5-1.5h-.36a1.35,1.35,0,0,0-1.5,1.5v16.9c0,7,4.18,11.14,11.18,11.14S76,36.38,76,29.41V12.51a1.35,1.35,0,0,0-1.5-1.5m29.81,0H104a1.35,1.35,0,0,0-1.5,1.5V35L85.64,11.9A1.9,1.9,0,0,0,83.95,11H82.67a1.35,1.35,0,0,0-1.5,1.5v25.9a1.35,1.35,0,0,0,1.5,1.5H83a1.35,1.35,0,0,0,1.5-1.5V15.9L101.38,39a1.9,1.9,0,0,0,1.69.89h1.28a1.35,1.35,0,0,0,1.5-1.5V12.51A1.35,1.35,0,0,0,104.35,11Zm15,11.85c-3.73-1.17-5-2.29-5-4.45a4.61,4.61,0,0,1,4.92-4.48,4.79,4.79,0,0,1,4,2.28A1.78,1.78,0,0,0,125,17.27h.64a1.41,1.41,0,0,0,1.21-.51,1.27,1.27,0,0,0,.08-1.22,8,8,0,0,0-7.66-5c-4.86,0-8.39,3.29-8.39,7.83s3.33,6.6,8.32,8.14c4.48,1.39,6.06,2.76,6.06,5.25,0,3-2.47,5.12-6,5.12a6,6,0,0,1-5.61-3.49A1.62,1.62,0,0,0,112,32.21h-.48a1.46,1.46,0,0,0-1.21.49,1.3,1.3,0,0,0-.15,1.19,9.29,9.29,0,0,0,9.1,6.37c5.48,0,9.47-3.56,9.47-8.47S125,24.64,119.32,22.86Z"/>
<path class="cls-3" d="M158,38.12l-11.68-26A1.73,1.73,0,0,0,144.6,11h-1.08a1.74,1.74,0,0,0-1.68,1.09l-11.68,26a1.29,1.29,0,0,0,0,1.29,1.25,1.25,0,0,0,1.14.5h.52a1.73,1.73,0,0,0,1.68-1.09l2-4.45h6.59a.71.71,0,0,0,.71-.71V31.85a.71.71,0,0,0-.71-.71h-5.16l7-15.44a.21.21,0,0,1,.38,0l6.92,15.44h-5.14a.71.71,0,0,0-.71.71v1.81a.71.71,0,0,0,.71.71h6.58l2,4.46a1.73,1.73,0,0,0,1.67,1.08h.48a1.33,1.33,0,0,0,1.17-.51,1.27,1.27,0,0,0,0-1.27"/>
</g>
</g>
</svg>